<?xml version="1.0" standalone="no"?>
<!DOCTYPE svg PUBLIC "-//W3C//DTD SVG 20010904//EN"
 "http://www.w3.org/TR/2001/REC-SVG-20010904/DTD/svg10.dtd">
<svg version="1.0" xmlns="http://www.w3.org/2000/svg"
 width="700.000000pt" height="700.000000pt" viewBox="0 0 700.000000 700.000000"
 preserveAspectRatio="xMidYMid meet">
<metadata>
Created by potrace 1.14, written by Peter Selinger 2001-2017
</metadata>
<g transform="translate(0.000000,700.000000) scale(0.100000,-0.100000)"
fill="#000000" stroke="none">
<path d="M3338 6595 c-2 -2 -37 -6 -78 -10 -41 -4 -77 -9 -80 -10 -3 -2 -26
-6 -50 -10 -222 -33 -492 -137 -752 -290 -24 -13 -387 -222 -452 -259 -28 -16
-157 -90 -286 -164 -129 -74 -251 -144 -270 -155 -19 -11 -80 -45 -135 -77
-55 -32 -118 -68 -140 -80 -22 -12 -85 -48 -140 -80 -55 -32 -118 -68 -140
-80 -206 -115 -468 -269 -500 -294 -150 -117 -239 -272 -266 -464 -10 -74 -6
-345 6 -405 25 -123 92 -244 190 -343 76 -77 135 -116 378 -253 16 -9 36 -20
46 -26 9 -5 46 -28 83 -49 l67 -40 -127 -71 c-369 -209 -392 -224 -476 -317
-54 -60 -132 -199 -142 -254 -3 -15 -7 -31 -10 -36 -22 -35 -25 -410 -4 -498
7 -30 16 -59 20 -65 4 -5 13 -27 19 -47 20 -62 103 -179 168 -238 41 -37 163
-114 370 -234 169 -98 319 -186 333 -195 14 -8 45 -26 70 -39 25 -14 52 -31
61 -38 8 -8 19 -14 23 -14 3 0 52 -27 109 -61 56 -33 111 -65 122 -72 11 -6
270 -157 575 -335 305 -178 598 -345 650 -371 103 -52 250 -110 345 -136 33
-9 74 -20 90 -25 150 -45 507 -69 713 -47 204 21 463 94 654 185 94 44 136 67
313 170 33 19 75 43 93 53 17 11 47 27 65 38 17 10 61 36 97 56 36 21 94 54
128 74 35 20 71 41 81 46 20 12 160 94 216 126 129 73 402 230 434 249 108 63
238 138 269 155 20 11 39 22 42 25 3 3 16 11 30 18 51 26 140 78 152 90 7 7
15 12 20 12 4 0 47 23 95 51 48 28 120 70 158 92 158 92 260 198 320 333 20
46 39 109 35 116 -1 2 4 17 10 33 17 41 23 323 10 407 -27 174 -114 331 -242
436 -30 24 -156 103 -282 176 -125 73 -228 136 -228 141 0 8 98 71 142 91 26
13 249 143 305 179 103 65 198 175 249 288 50 109 60 168 60 377 1 174 -1 203
-22 273 -46 160 -133 286 -262 379 -31 23 -659 388 -795 463 -27 15 -54 31
-60 35 -23 18 -258 150 -266 150 -5 0 -9 4 -9 9 0 5 -6 11 -12 13 -11 2 -190
104 -340 191 -17 10 -90 52 -162 94 -72 41 -144 83 -161 93 -154 90 -207 120
-210 120 -2 0 -32 17 -66 39 -83 50 -227 123 -309 156 -63 25 -234 83 -268 90
-9 2 -37 8 -62 14 -53 12 -87 18 -149 27 -25 4 -55 9 -66 11 -23 5 -392 12
-397 8z"/>
</g>
</svg>
